<mxfile host="Electron" agent="Mozilla/5.0 (Windows NT 10.0; Win64; x64) AppleWebKit/537.36 (KHTML, like Gecko) draw.io/24.7.17 Chrome/128.0.6613.36 Electron/32.0.1 Safari/537.36" version="24.7.17">
  <diagram name="Page-1" id="EcCqTjzqST9A43YY4eaZ">
    <mxGraphModel dx="1843" dy="887" grid="1" gridSize="10" guides="1" tooltips="1" connect="1" arrows="1" fold="1" page="1" pageScale="1" pageWidth="850" pageHeight="1100" math="0" shadow="0">
      <root>
        <mxCell id="0" />
        <mxCell id="1" parent="0" />
        <mxCell id="UNiOE5RKGvsNSE8sUtjC-1" value="" style="endArrow=classic;html=1;rounded=0;entryX=0;entryY=0.5;entryDx=0;entryDy=0;" parent="1" edge="1">
          <mxGeometry width="50" height="50" relative="1" as="geometry">
            <mxPoint x="60" y="299.5" as="sourcePoint" />
            <mxPoint x="290" y="299.5" as="targetPoint" />
          </mxGeometry>
        </mxCell>
        <mxCell id="UNiOE5RKGvsNSE8sUtjC-2" value="Takes in information about the board" style="edgeLabel;html=1;align=center;verticalAlign=middle;resizable=0;points=[];" parent="UNiOE5RKGvsNSE8sUtjC-1" vertex="1" connectable="0">
          <mxGeometry x="-0.2743" y="-2" relative="1" as="geometry">
            <mxPoint x="20" y="-1" as="offset" />
          </mxGeometry>
        </mxCell>
        <mxCell id="UNiOE5RKGvsNSE8sUtjC-21" value="" style="edgeStyle=orthogonalEdgeStyle;rounded=0;orthogonalLoop=1;jettySize=auto;html=1;" parent="1" source="UNiOE5RKGvsNSE8sUtjC-4" target="UNiOE5RKGvsNSE8sUtjC-20" edge="1">
          <mxGeometry relative="1" as="geometry">
            <Array as="points">
              <mxPoint x="350" y="440" />
            </Array>
          </mxGeometry>
        </mxCell>
        <mxCell id="UNiOE5RKGvsNSE8sUtjC-4" value="Is the position in the the openings database?" style="rounded=0;whiteSpace=wrap;html=1;" parent="1" vertex="1">
          <mxGeometry x="290" y="270" width="120" height="60" as="geometry" />
        </mxCell>
        <mxCell id="UNiOE5RKGvsNSE8sUtjC-7" value="" style="endArrow=classic;html=1;rounded=0;" parent="1" edge="1">
          <mxGeometry width="50" height="50" relative="1" as="geometry">
            <mxPoint x="800" y="299.5" as="sourcePoint" />
            <mxPoint x="930" y="300" as="targetPoint" />
          </mxGeometry>
        </mxCell>
        <mxCell id="UNiOE5RKGvsNSE8sUtjC-8" value="Return a move" style="edgeLabel;html=1;align=center;verticalAlign=middle;resizable=0;points=[];" parent="UNiOE5RKGvsNSE8sUtjC-7" vertex="1" connectable="0">
          <mxGeometry x="-0.2743" y="-2" relative="1" as="geometry">
            <mxPoint x="20" y="-2" as="offset" />
          </mxGeometry>
        </mxCell>
        <mxCell id="UNiOE5RKGvsNSE8sUtjC-9" value="" style="endArrow=classic;html=1;rounded=0;exitX=1;exitY=0.5;exitDx=0;exitDy=0;" parent="1" source="UNiOE5RKGvsNSE8sUtjC-12" edge="1">
          <mxGeometry width="50" height="50" relative="1" as="geometry">
            <mxPoint x="570" y="280" as="sourcePoint" />
            <mxPoint x="800" y="300" as="targetPoint" />
            <Array as="points">
              <mxPoint x="800" y="160" />
            </Array>
          </mxGeometry>
        </mxCell>
        <mxCell id="UNiOE5RKGvsNSE8sUtjC-10" value="" style="endArrow=classic;html=1;rounded=0;exitX=0.5;exitY=0;exitDx=0;exitDy=0;entryX=0.5;entryY=1;entryDx=0;entryDy=0;" parent="1" source="UNiOE5RKGvsNSE8sUtjC-4" target="UNiOE5RKGvsNSE8sUtjC-12" edge="1">
          <mxGeometry width="50" height="50" relative="1" as="geometry">
            <mxPoint x="570" y="280" as="sourcePoint" />
            <mxPoint x="350" y="160" as="targetPoint" />
          </mxGeometry>
        </mxCell>
        <mxCell id="UNiOE5RKGvsNSE8sUtjC-11" value="Yes" style="edgeLabel;html=1;align=center;verticalAlign=middle;resizable=0;points=[];" parent="UNiOE5RKGvsNSE8sUtjC-10" vertex="1" connectable="0">
          <mxGeometry x="0.0473" y="3" relative="1" as="geometry">
            <mxPoint as="offset" />
          </mxGeometry>
        </mxCell>
        <mxCell id="UNiOE5RKGvsNSE8sUtjC-12" value="Get a random move in the database" style="rounded=0;whiteSpace=wrap;html=1;" parent="1" vertex="1">
          <mxGeometry x="290" y="130" width="120" height="60" as="geometry" />
        </mxCell>
        <mxCell id="UNiOE5RKGvsNSE8sUtjC-59" value="" style="edgeStyle=orthogonalEdgeStyle;rounded=0;orthogonalLoop=1;jettySize=auto;html=1;" parent="1" source="UNiOE5RKGvsNSE8sUtjC-13" target="UNiOE5RKGvsNSE8sUtjC-58" edge="1">
          <mxGeometry relative="1" as="geometry" />
        </mxCell>
        <mxCell id="UNiOE5RKGvsNSE8sUtjC-13" value="Create a list of legal moves" style="rounded=0;whiteSpace=wrap;html=1;" parent="1" vertex="1">
          <mxGeometry x="300" y="970" width="120" height="50" as="geometry" />
        </mxCell>
        <mxCell id="UNiOE5RKGvsNSE8sUtjC-20" value="Enter move calc" style="whiteSpace=wrap;html=1;rounded=0;" parent="1" vertex="1">
          <mxGeometry x="550" y="410" width="120" height="60" as="geometry" />
        </mxCell>
        <mxCell id="UNiOE5RKGvsNSE8sUtjC-22" value="" style="endArrow=classic;html=1;rounded=0;exitX=1;exitY=0.5;exitDx=0;exitDy=0;" parent="1" source="UNiOE5RKGvsNSE8sUtjC-20" edge="1">
          <mxGeometry width="50" height="50" relative="1" as="geometry">
            <mxPoint x="650" y="530" as="sourcePoint" />
            <mxPoint x="800" y="300" as="targetPoint" />
            <Array as="points">
              <mxPoint x="800" y="440" />
            </Array>
          </mxGeometry>
        </mxCell>
        <mxCell id="UNiOE5RKGvsNSE8sUtjC-25" value="" style="edgeStyle=orthogonalEdgeStyle;rounded=0;orthogonalLoop=1;jettySize=auto;html=1;" parent="1" source="UNiOE5RKGvsNSE8sUtjC-23" target="UNiOE5RKGvsNSE8sUtjC-24" edge="1">
          <mxGeometry relative="1" as="geometry" />
        </mxCell>
        <mxCell id="UNiOE5RKGvsNSE8sUtjC-23" value="Find move (board, max_depth, current_depth, abs_max)" style="rounded=0;whiteSpace=wrap;html=1;" parent="1" vertex="1">
          <mxGeometry x="100" y="840" width="120" height="60" as="geometry" />
        </mxCell>
        <mxCell id="UNiOE5RKGvsNSE8sUtjC-31" value="" style="edgeStyle=orthogonalEdgeStyle;rounded=0;orthogonalLoop=1;jettySize=auto;html=1;exitX=0.5;exitY=0;exitDx=0;exitDy=0;" parent="1" source="UNiOE5RKGvsNSE8sUtjC-64" target="UNiOE5RKGvsNSE8sUtjC-26" edge="1">
          <mxGeometry relative="1" as="geometry">
            <mxPoint x="360" y="640" as="sourcePoint" />
            <Array as="points" />
          </mxGeometry>
        </mxCell>
        <mxCell id="UNiOE5RKGvsNSE8sUtjC-40" value="Yes" style="edgeLabel;html=1;align=center;verticalAlign=middle;resizable=0;points=[];" parent="UNiOE5RKGvsNSE8sUtjC-31" vertex="1" connectable="0">
          <mxGeometry x="0.4578" y="-3" relative="1" as="geometry">
            <mxPoint x="-3" y="16" as="offset" />
          </mxGeometry>
        </mxCell>
        <mxCell id="UNiOE5RKGvsNSE8sUtjC-33" value="" style="edgeStyle=orthogonalEdgeStyle;rounded=0;orthogonalLoop=1;jettySize=auto;html=1;entryX=0.5;entryY=0;entryDx=0;entryDy=0;" parent="1" source="UNiOE5RKGvsNSE8sUtjC-24" target="UNiOE5RKGvsNSE8sUtjC-13" edge="1">
          <mxGeometry relative="1" as="geometry">
            <mxPoint x="360" y="980" as="targetPoint" />
          </mxGeometry>
        </mxCell>
        <mxCell id="UNiOE5RKGvsNSE8sUtjC-34" value="No" style="edgeLabel;html=1;align=center;verticalAlign=middle;resizable=0;points=[];" parent="UNiOE5RKGvsNSE8sUtjC-33" vertex="1" connectable="0">
          <mxGeometry x="-0.32" y="2" relative="1" as="geometry">
            <mxPoint as="offset" />
          </mxGeometry>
        </mxCell>
        <mxCell id="UNiOE5RKGvsNSE8sUtjC-67" value="" style="edgeStyle=orthogonalEdgeStyle;rounded=0;orthogonalLoop=1;jettySize=auto;html=1;" parent="1" source="UNiOE5RKGvsNSE8sUtjC-24" target="UNiOE5RKGvsNSE8sUtjC-64" edge="1">
          <mxGeometry relative="1" as="geometry" />
        </mxCell>
        <mxCell id="UNiOE5RKGvsNSE8sUtjC-68" value="Yes" style="edgeLabel;html=1;align=center;verticalAlign=middle;resizable=0;points=[];" parent="UNiOE5RKGvsNSE8sUtjC-67" vertex="1" connectable="0">
          <mxGeometry x="-0.184" y="-1" relative="1" as="geometry">
            <mxPoint as="offset" />
          </mxGeometry>
        </mxCell>
        <mxCell id="UNiOE5RKGvsNSE8sUtjC-24" value="Is max_depth = current_depth or abs_max" style="whiteSpace=wrap;html=1;rounded=0;" parent="1" vertex="1">
          <mxGeometry x="300" y="840" width="120" height="60" as="geometry" />
        </mxCell>
        <mxCell id="UNiOE5RKGvsNSE8sUtjC-42" value="" style="edgeStyle=orthogonalEdgeStyle;rounded=0;orthogonalLoop=1;jettySize=auto;html=1;" parent="1" source="UNiOE5RKGvsNSE8sUtjC-26" target="UNiOE5RKGvsNSE8sUtjC-41" edge="1">
          <mxGeometry relative="1" as="geometry" />
        </mxCell>
        <mxCell id="UNiOE5RKGvsNSE8sUtjC-26" value="Apply the Eval functions to the leaf nodes, and return the pos worst for the engine" style="whiteSpace=wrap;html=1;rounded=0;" parent="1" vertex="1">
          <mxGeometry x="285" y="610" width="150" height="70" as="geometry" />
        </mxCell>
        <mxCell id="UNiOE5RKGvsNSE8sUtjC-41" value="Return the move that&#39;s best for the engine from those options" style="whiteSpace=wrap;html=1;rounded=0;" parent="1" vertex="1">
          <mxGeometry x="530" y="615" width="120" height="60" as="geometry" />
        </mxCell>
        <mxCell id="UNiOE5RKGvsNSE8sUtjC-56" value="" style="endArrow=classic;html=1;rounded=0;exitX=1;exitY=0.5;exitDx=0;exitDy=0;" parent="1" source="UNiOE5RKGvsNSE8sUtjC-41" edge="1">
          <mxGeometry width="50" height="50" relative="1" as="geometry">
            <mxPoint x="570" y="725" as="sourcePoint" />
            <mxPoint x="790" y="645" as="targetPoint" />
          </mxGeometry>
        </mxCell>
        <mxCell id="UNiOE5RKGvsNSE8sUtjC-57" value="Exit Move Calc" style="edgeLabel;html=1;align=center;verticalAlign=middle;resizable=0;points=[];" parent="UNiOE5RKGvsNSE8sUtjC-56" vertex="1" connectable="0">
          <mxGeometry x="-0.1314" y="-5" relative="1" as="geometry">
            <mxPoint y="-5" as="offset" />
          </mxGeometry>
        </mxCell>
        <mxCell id="UNiOE5RKGvsNSE8sUtjC-61" value="" style="edgeStyle=orthogonalEdgeStyle;rounded=0;orthogonalLoop=1;jettySize=auto;html=1;" parent="1" source="UNiOE5RKGvsNSE8sUtjC-58" target="UNiOE5RKGvsNSE8sUtjC-60" edge="1">
          <mxGeometry relative="1" as="geometry" />
        </mxCell>
        <mxCell id="UNiOE5RKGvsNSE8sUtjC-58" value="Order them by check, capture, forward, backward" style="whiteSpace=wrap;html=1;rounded=0;" parent="1" vertex="1">
          <mxGeometry x="500" y="965" width="120" height="60" as="geometry" />
        </mxCell>
        <mxCell id="UNiOE5RKGvsNSE8sUtjC-60" value="Run find move on each, with lower max_depths on later moves" style="whiteSpace=wrap;html=1;rounded=0;" parent="1" vertex="1">
          <mxGeometry x="700" y="965" width="120" height="60" as="geometry" />
        </mxCell>
        <mxCell id="UNiOE5RKGvsNSE8sUtjC-66" value="" style="edgeStyle=orthogonalEdgeStyle;rounded=0;orthogonalLoop=1;jettySize=auto;html=1;" parent="1" source="UNiOE5RKGvsNSE8sUtjC-64" target="UNiOE5RKGvsNSE8sUtjC-23" edge="1">
          <mxGeometry relative="1" as="geometry">
            <mxPoint x="220" y="760" as="targetPoint" />
          </mxGeometry>
        </mxCell>
        <mxCell id="UNiOE5RKGvsNSE8sUtjC-64" value="is the position stable (pieces are not attacked by lower value ones) and are we under abs_max" style="rounded=0;whiteSpace=wrap;html=1;" parent="1" vertex="1">
          <mxGeometry x="270" y="730" width="180" height="60" as="geometry" />
        </mxCell>
        <mxCell id="3A7OYDtG8nSPSqj9bP_V-1" value="Value walkthrough" style="rounded=0;whiteSpace=wrap;html=1;" vertex="1" parent="1">
          <mxGeometry x="1100" y="90" width="120" height="60" as="geometry" />
        </mxCell>
        <mxCell id="3A7OYDtG8nSPSqj9bP_V-2" value="" style="endArrow=classic;html=1;rounded=0;" edge="1" parent="1" target="3A7OYDtG8nSPSqj9bP_V-5">
          <mxGeometry width="50" height="50" relative="1" as="geometry">
            <mxPoint x="1420" y="60" as="sourcePoint" />
            <mxPoint x="1420" y="200" as="targetPoint" />
          </mxGeometry>
        </mxCell>
        <mxCell id="3A7OYDtG8nSPSqj9bP_V-4" value="board, a move to make, the currentDepth, and the max depth" style="edgeLabel;html=1;align=center;verticalAlign=middle;resizable=0;points=[];" vertex="1" connectable="0" parent="3A7OYDtG8nSPSqj9bP_V-2">
          <mxGeometry x="-0.3086" y="3" relative="1" as="geometry">
            <mxPoint as="offset" />
          </mxGeometry>
        </mxCell>
        <mxCell id="3A7OYDtG8nSPSqj9bP_V-7" value="" style="edgeStyle=orthogonalEdgeStyle;rounded=0;orthogonalLoop=1;jettySize=auto;html=1;" edge="1" parent="1" source="3A7OYDtG8nSPSqj9bP_V-5" target="3A7OYDtG8nSPSqj9bP_V-6">
          <mxGeometry relative="1" as="geometry" />
        </mxCell>
        <mxCell id="3A7OYDtG8nSPSqj9bP_V-8" value="No base case" style="edgeLabel;html=1;align=center;verticalAlign=middle;resizable=0;points=[];" vertex="1" connectable="0" parent="3A7OYDtG8nSPSqj9bP_V-7">
          <mxGeometry x="-0.4191" relative="1" as="geometry">
            <mxPoint as="offset" />
          </mxGeometry>
        </mxCell>
        <mxCell id="3A7OYDtG8nSPSqj9bP_V-17" value="" style="edgeStyle=orthogonalEdgeStyle;rounded=0;orthogonalLoop=1;jettySize=auto;html=1;" edge="1" parent="1" source="3A7OYDtG8nSPSqj9bP_V-5" target="3A7OYDtG8nSPSqj9bP_V-16">
          <mxGeometry relative="1" as="geometry" />
        </mxCell>
        <mxCell id="3A7OYDtG8nSPSqj9bP_V-18" value="Base Case" style="edgeLabel;html=1;align=center;verticalAlign=middle;resizable=0;points=[];" vertex="1" connectable="0" parent="3A7OYDtG8nSPSqj9bP_V-17">
          <mxGeometry x="-0.1683" y="-5" relative="1" as="geometry">
            <mxPoint x="-1" as="offset" />
          </mxGeometry>
        </mxCell>
        <mxCell id="3A7OYDtG8nSPSqj9bP_V-5" value="Create a new state using the board and the move" style="rounded=0;whiteSpace=wrap;html=1;" vertex="1" parent="1">
          <mxGeometry x="1360" y="200" width="120" height="60" as="geometry" />
        </mxCell>
        <mxCell id="3A7OYDtG8nSPSqj9bP_V-10" value="" style="edgeStyle=orthogonalEdgeStyle;rounded=0;orthogonalLoop=1;jettySize=auto;html=1;" edge="1" parent="1" source="3A7OYDtG8nSPSqj9bP_V-6" target="3A7OYDtG8nSPSqj9bP_V-9">
          <mxGeometry relative="1" as="geometry" />
        </mxCell>
        <mxCell id="3A7OYDtG8nSPSqj9bP_V-6" value="Generate a set of moves the enemy can make" style="whiteSpace=wrap;html=1;rounded=0;" vertex="1" parent="1">
          <mxGeometry x="1560" y="320" width="120" height="60" as="geometry" />
        </mxCell>
        <mxCell id="3A7OYDtG8nSPSqj9bP_V-12" value="" style="edgeStyle=orthogonalEdgeStyle;rounded=0;orthogonalLoop=1;jettySize=auto;html=1;" edge="1" parent="1" source="3A7OYDtG8nSPSqj9bP_V-9" target="3A7OYDtG8nSPSqj9bP_V-11">
          <mxGeometry relative="1" as="geometry" />
        </mxCell>
        <mxCell id="3A7OYDtG8nSPSqj9bP_V-9" value="Estimate the value of those moves using value function" style="whiteSpace=wrap;html=1;rounded=0;" vertex="1" parent="1">
          <mxGeometry x="1560" y="460" width="120" height="60" as="geometry" />
        </mxCell>
        <mxCell id="3A7OYDtG8nSPSqj9bP_V-11" value="Return the best" style="whiteSpace=wrap;html=1;rounded=0;" vertex="1" parent="1">
          <mxGeometry x="1560" y="600" width="120" height="60" as="geometry" />
        </mxCell>
        <mxCell id="3A7OYDtG8nSPSqj9bP_V-13" value="" style="endArrow=classic;html=1;rounded=0;exitX=1;exitY=0.5;exitDx=0;exitDy=0;" edge="1" parent="1" source="3A7OYDtG8nSPSqj9bP_V-9">
          <mxGeometry width="50" height="50" relative="1" as="geometry">
            <mxPoint x="1590" y="340" as="sourcePoint" />
            <mxPoint x="1420" y="60" as="targetPoint" />
            <Array as="points">
              <mxPoint x="1900" y="490" />
              <mxPoint x="1900" y="60" />
            </Array>
          </mxGeometry>
        </mxCell>
        <mxCell id="3A7OYDtG8nSPSqj9bP_V-14" value="Pass in the new board, one of the generated moves, &lt;br&gt;the currentDepth+1, and the max depth" style="edgeLabel;html=1;align=center;verticalAlign=middle;resizable=0;points=[];" vertex="1" connectable="0" parent="3A7OYDtG8nSPSqj9bP_V-13">
          <mxGeometry x="-0.228" y="-1" relative="1" as="geometry">
            <mxPoint as="offset" />
          </mxGeometry>
        </mxCell>
        <mxCell id="3A7OYDtG8nSPSqj9bP_V-16" value="Return the estimated static value, or the terminal value" style="whiteSpace=wrap;html=1;rounded=0;" vertex="1" parent="1">
          <mxGeometry x="1180" y="320" width="120" height="60" as="geometry" />
        </mxCell>
      </root>
    </mxGraphModel>
  </diagram>
</mxfile>
